PathFileType	4	(X/Y/Z)	C:\Documents and Settings\rtobon\Desktop\NewMocap\New\NoT\ActorI_Run.trc
DataRate	CameraRate	NumFrames	NumMarkers	Units	OrigDataRate	OrigDataStartFrame	OrigNumFrames
120.00	120.00	       6	49	mm	120.00	27	       105
Frame#	Time	Root			LtFtHip			LtBkHip			RtFtHip			RtBkHip			Spine1			Spine2			Spine3			SpineOffsetLow			SpineOffsetHigh			LtCtChest			RtCtChest			LtChest			RtChest			LtShoulder			LtBicep			LtElbow			LtForeArm			LtWrist			LtPinky			LtThumb			LtMiddFing			RtShoulder			RtBicep			RtElbow			RtForeArm			RtWrist			RtPinky			RtThumb			RtMiddFing			LtThigh			LtKnee			LtCalf			LtAnkle			LtHeel			LtBall			LtToe			RtThigh			RtKnee			RtCalf			RtAnkle			RtHeel			RtBall			RtToe			TopHead			LfFtHead			LtBkHead			RtFtHead			RtBkHead			
		X1	Y1	Z1	X2	Y2	Z2	X3	Y3	Z3	X4	Y4	Z4	X5	Y5	Z5	X6	Y6	Z6	X7	Y7	Z7	X8	Y8	Z8	X9	Y9	Z9	X10	Y10	Z10	X11	Y11	Z11	X12	Y12	Z12	X13	Y13	Z13	X14	Y14	Z14	X15	Y15	Z15	X16	Y16	Z16	X17	Y17	Z17	X18	Y18	Z18	X19	Y19	Z19	X20	Y20	Z20	X21	Y21	Z21	X22	Y22	Z22	X23	Y23	Z23	X24	Y24	Z24	X25	Y25	Z25	X26	Y26	Z26	X27	Y27	Z27	X28	Y28	Z28	X29	Y29	Z29	X30	Y30	Z30	X31	Y31	Z31	X32	Y32	Z32	X33	Y33	Z33	X34	Y34	Z34	X35	Y35	Z35	X36	Y36	Z36	X37	Y37	Z37	X38	Y38	Z38	X39	Y39	Z39	X40	Y40	Z40	X41	Y41	Z41	X42	Y42	Z42	X43	Y43	Z43	X44	Y44	Z44	X45	Y45	Z45	X46	Y46	Z46	X47	Y47	Z47	X48	Y48	Z48	X49	Y49	Z49	
27	0.217	-818.04736	919.41949	9.08558	-597.25952	898.73309	-103.19498	-788.94171	922.12946	-109.54525	-601.07147	869.80719	148.95775	-795.36407	900.04059	138.14879	-876.39001	1042.62158	28.05769	-933.93024	1163.30359	38.87460	-956.54962	1262.11792	38.00878	-833.93658	982.96796	104.67983	-950.11066	1214.66345	-64.01529	-659.55817	1198.70435	-6.65088	-701.52533	1249.45349	43.58999	-738.05304	1271.19043	-77.76540	-732.86365	1277.62244	116.49617	-857.11700	1309.21375	-151.56142	-833.85175	1134.03638	-259.15366	-948.05145	1065.44714	-337.92282	-803.75598	1000.03174	-253.52554	-749.98792	920.73608	-266.94400	-719.47314	847.32886	-253.76726	-715.55157	954.99988	-207.04579	-686.89569	909.90875	-254.04237	-827.91846	1288.88721	236.90082	-662.09308	1195.71667	243.88429	-602.51843	1062.64697	307.20676	-596.32233	1188.28625	236.23763	-506.21359	1263.49377	217.26897	-442.60574	1293.40869	155.87975	-565.68860	1289.05090	180.59351	-494.97162	1329.35388	191.82396	-515.30933	673.85901	-130.61494	-476.99960	468.09402	-129.81119	-613.09839	342.65463	-114.97602	-633.57031	144.86266	-62.73397	-736.10101	80.07957	22.19768	-572.43439	70.94949	-64.74228	-470.99792	57.17690	-19.81339	-572.57440	570.88342	167.75868	-617.10602	392.24673	225.88377	-796.11975	438.18991	208.67476	-999.47467	397.58804	131.42690	-1054.43359	399.78690	27.24119	-1064.73840	289.33069	190.31441	-1063.99402	184.24707	189.87299	-1051.57336	1515.75061	21.89320	-908.21552	1526.69824	-36.90292	-984.34045	1408.20117	-59.25386	-909.19641	1546.47302	87.83000	-1002.06519	1415.55249	118.31754	
28	0.225	-787.32104	916.94324	7.25724	-566.89215	894.05536	-103.16877	-758.51172	919.62207	-111.85638	-571.55688	866.22882	148.73053	-766.76654	894.69983	137.17673	-846.29993	1037.11035	25.24426	-904.11523	1158.26648	34.90322	-925.95453	1256.57446	34.77352	-804.84296	977.61719	102.15206	-918.92950	1208.27161	-68.39049	-628.78162	1194.70459	-5.04703	-670.99402	1245.52185	44.86057	-706.04205	1268.21045	-77.26881	-703.63263	1272.27649	119.13107	-824.13892	1303.22864	-153.72632	-787.23376	1127.45349	-259.23660	-892.70483	1052.04736	-343.98239	-748.64014	998.30261	-251.68860	-688.62427	924.23859	-262.11017	-653.43091	853.32971	-245.68364	-659.96265	961.23285	-199.48329	-624.83948	918.76642	-244.46558	-800.83185	1278.94299	238.02094	-639.60803	1174.24463	245.18755	-592.14447	1036.00940	304.99811	-571.86151	1160.87317	236.49821	-474.35114	1226.75488	219.63969	-406.33728	1250.37097	159.34418	-530.52966	1258.30127	181.77928	-456.13766	1290.99219	194.10477	-491.81848	663.30023	-130.85529	-463.31635	457.94077	-129.14944	-605.35419	339.33041	-109.33992	-631.60260	139.73912	-61.55208	-735.68518	75.97393	23.46350	-573.10901	70.61382	-63.80619	-470.32733	56.54219	-20.57405	-526.23999	575.49902	169.49237	-557.95093	394.84335	227.52313	-737.83588	438.40320	212.90376	-939.74213	399.51587	135.01532	-995.42120	405.14575	31.05147	-1002.97540	289.83667	190.96399	-1000.48816	184.24138	186.26971	-1020.42383	1514.00916	19.34518	-876.98022	1524.28284	-38.39550	-953.49762	1406.42261	-61.19622	-878.41278	1543.89746	87.00050	-972.58197	1413.23645	116.46421	
29	0.233	-757.54633	913.74689	6.61108	-537.70972	889.15509	-104.38422	-728.56848	917.65680	-112.82325	-541.56372	863.10706	148.42316	-738.50568	890.24353	136.47606	-815.98950	1031.33264	22.17685	-873.35706	1152.82532	30.44468	-895.55487	1252.15625	31.05377	-774.93164	972.17340	99.80385	-887.20825	1201.80847	-71.68875	-598.10529	1190.87622	-4.07758	-640.32898	1241.97034	46.87536	-674.13049	1264.67456	-75.85573	-673.65198	1267.20972	121.69207	-791.72638	1297.36621	-156.10658	-739.73132	1121.40381	-258.99054	-835.82983	1039.16333	-349.24536	-693.63007	998.04913	-248.51492	-627.20758	929.66730	-255.05008	-587.11700	861.86127	-236.44109	-605.24249	969.38892	-191.76971	-563.97314	929.01245	-234.45451	-774.72662	1268.84351	238.56987	-619.21704	1152.72839	246.98683	-584.40393	1011.10797	303.86725	-549.62097	1133.33191	236.25528	-445.32062	1188.64648	222.26509	-373.83307	1205.43445	164.48477	-497.11935	1225.94104	183.12773	-419.86279	1250.83215	197.43069	-470.46048	654.43542	-130.84395	-450.86795	447.55048	-128.16139	-595.87402	330.58517	-113.83841	-629.88757	135.08377	-60.48565	-738.44818	71.51758	22.77528	-574.19043	70.55924	-62.58928	-472.22189	57.04905	-20.24536	-479.86053	581.09973	170.22037	-498.73990	399.68396	228.86266	-678.42651	440.87091	217.48337	-879.77948	400.75299	138.27100	-935.67999	409.28397	35.52685	-939.53961	288.65271	191.56024	-933.98621	182.82289	182.23869	-989.71576	1512.19226	17.01346	-845.95599	1522.31177	-38.90308	-922.44800	1404.88660	-63.46499	-848.21661	1540.97900	85.75359	-942.87915	1410.96875	114.56327	
30	0.242	-729.05457	911.09381	6.90838	-509.96301	884.02026	-104.99155	-700.02063	915.80139	-113.33150	-511.48938	859.72528	147.21304	-708.27325	885.85199	136.51524	-786.35577	1026.11255	19.60424	-843.25964	1147.92188	26.34389	-865.37653	1247.76184	27.39371	-744.80676	967.04669	98.21303	-855.52411	1196.46106	-76.17489	-567.20978	1187.89185	-2.61082	-609.38269	1238.19922	48.29299	-642.23285	1261.67004	-74.30187	-643.96265	1262.35730	125.65915	-759.43048	1291.50952	-157.80724	-692.72198	1116.89282	-258.93069	-778.07581	1026.87830	-352.33438	-637.83179	1000.06226	-244.74265	-566.03253	936.80927	-246.40004	-520.83063	872.67639	-223.79147	-550.16016	979.78687	-183.88921	-504.03738	941.50958	-223.56503	-748.96075	1258.74951	238.27762	-600.89093	1132.86804	249.81062	-579.81561	987.58783	302.32196	-529.06030	1106.28552	236.67946	-419.52142	1149.71912	225.34700	-345.28275	1159.24585	170.27992	-466.12909	1192.26587	184.95480	-387.66174	1209.40210	201.64397	-449.00958	645.73505	-130.39638	-438.03848	436.92477	-128.45564	-584.36810	321.54297	-115.86802	-628.01746	131.33012	-60.76484	-739.13947	70.07629	22.45888	-574.68585	70.20446	-62.60664	-472.79837	56.87635	-20.39623	-433.71155	589.16718	169.62625	-438.98230	408.28510	229.49580	-618.74060	443.30411	221.26414	-820.32764	400.29843	141.83347	-877.97321	411.21127	40.62457	-877.44958	283.36636	190.37872	-866.14478	179.87492	178.35802	-959.09650	1509.68713	15.56603	-814.91943	1519.93909	-40.18849	-891.60095	1402.01770	-65.00187	-817.50854	1538.00366	84.80059	-913.01373	1408.02649	111.63093	
31	0.250	-700.02759	908.66699	7.37505	-481.13235	880.02441	-105.63677	-672.18695	913.83411	-111.67468	-480.91617	857.81757	146.67134	-678.17902	881.82043	137.57484	-756.47217	1021.48328	16.87042	-812.69318	1143.73633	21.77508	-834.29980	1244.55884	23.84248	-714.38232	962.86359	95.31141	-823.35583	1191.72791	-79.30705	-536.14856	1184.24597	-0.89927	-578.98474	1235.02612	50.60598	-610.25610	1258.68677	-72.87623	-615.14807	1257.17407	128.17554	-726.61469	1286.57996	-160.23624	-645.51569	1113.52197	-256.48804	-718.77698	1016.53125	-353.54745	-582.72662	1003.43225	-238.77892	-505.31750	947.59003	-237.62372	-456.88986	888.30341	-211.31396	-495.63727	992.66357	-174.90138	-445.27011	957.80090	-211.42429	-723.73547	1249.76318	237.01244	-584.16962	1113.52710	252.61069	-576.70251	966.55939	301.10425	-510.78809	1080.05396	237.59172	-397.22543	1110.36462	228.98927	-320.38748	1112.38904	175.58015	-437.38766	1157.87769	187.53116	-358.12170	1165.98035	206.52631	-427.99408	638.20355	-130.86493	-424.14221	428.27667	-128.73595	-572.97900	316.14029	-117.58217	-626.07996	128.53009	-59.27063	-738.53192	70.97395	22.21460	-574.98566	69.95702	-62.26597	-473.11130	56.89618	-20.54800	-388.32834	600.00372	167.91039	-379.87137	418.41055	228.63063	-561.53601	446.79633	225.14932	-761.66730	399.62729	144.63937	-821.33521	410.67267	44.10616	-813.03607	279.66193	190.41702	-795.46417	176.75485	175.39349	-928.25305	1507.42859	13.53038	-783.77173	1517.13696	-41.21413	-860.32208	1400.10254	-67.02270	-787.00665	1534.92725	83.41390	-882.06586	1405.18982	110.37151	
32	0.258	-670.87317	906.33167	10.11838	-453.38470	876.18182	-107.75215	-644.66266	911.54858	-111.39087	-449.01862	855.47211	144.65732	-646.51398	879.52435	138.67186	-727.52795	1017.97589	14.54793	-782.52936	1140.35266	18.11800	-803.52313	1240.96692	19.82837	-684.93127	960.20715	95.18342	-790.21454	1188.46692	-83.28164	-505.06384	1181.35486	-0.39859	-548.49097	1232.00378	51.70030	-578.64392	1255.95740	-71.20945	-586.00610	1252.98352	129.93333	-692.90411	1282.27026	-162.44193	-598.50238	1111.93005	-253.59882	-659.71808	1008.34979	-353.30829	-528.81274	1010.25311	-231.23660	-446.47079	961.91650	-226.41682	-393.76019	907.31372	-195.95081	-443.09885	1009.02844	-164.41028	-388.28891	978.25714	-198.24063	-698.73126	1242.07324	235.47316	-568.83746	1096.95190	255.60048	-575.67065	949.29419	299.25616	-495.04724	1054.63623	239.21727	-378.47830	1071.28723	232.91032	-300.69055	1064.78223	180.93280	-412.58533	1123.69971	190.84987	-332.92664	1122.13696	212.19173	-406.98450	630.80438	-131.68265	-410.29001	420.28735	-130.35718	-563.60492	312.83652	-118.96613	-623.90729	128.80714	-60.29493	-738.68597	71.96264	23.03244	-574.86749	69.94006	-62.53870	-473.27893	56.72101	-20.62346	-343.88168	612.11835	165.20699	-321.54410	431.57608	227.27570	-503.31406	451.69910	227.33084	-703.34961	397.87958	147.02119	-766.80341	408.40891	47.72348	-749.05164	274.55341	190.69402	-724.27344	173.57069	172.97037	-897.60864	1504.48901	11.86270	-753.40002	1514.88062	-42.77075	-829.85718	1397.83118	-69.38087	-757.03790	1532.35962	82.68089	-851.52344	1402.00476	108.25842	
